<?xml version="1.0" encoding="UTF-8" standalone="no"?>
<!-- Created with Inkscape (http://www.inkscape.org/) -->

<svg
   width="1000"
   height="1000"
   viewBox="0 0 264.58333 264.58333"
   version="1.1"
   id="svg1"
   inkscape:version="1.4.2 (f4327f4, 2025-05-13)"
   sodipodi:docname="bull.svg"
   inkscape:export-filename="house.png"
   inkscape:export-xdpi="96"
   inkscape:export-ydpi="96"
   xml:space="preserve"
   xmlns:inkscape="http://www.inkscape.org/namespaces/inkscape"
   xmlns:sodipodi="http://sodipodi.sourceforge.net/DTD/sodipodi-0.dtd"
   xmlns="http://www.w3.org/2000/svg"
   xmlns:svg="http://www.w3.org/2000/svg"><sodipodi:namedview
     id="namedview1"
     pagecolor="#ffffff"
     bordercolor="#000000"
     borderopacity="0.25"
     inkscape:showpageshadow="2"
     inkscape:pageopacity="0.0"
     inkscape:pagecheckerboard="0"
     inkscape:deskcolor="#d1d1d1"
     inkscape:document-units="px"
     showborder="false"
     inkscape:zoom="0.3955"
     inkscape:cx="-149.17826"
     inkscape:cy="213.6536"
     inkscape:window-width="2560"
     inkscape:window-height="1369"
     inkscape:window-x="2552"
     inkscape:window-y="-8"
     inkscape:window-maximized="1"
     inkscape:current-layer="layer1" /><defs
     id="defs1"><inkscape:path-effect
       effect="fill_between_many"
       method="originald"
       linkedpaths="#path22,0,1|"
       id="path-effect22" /><inkscape:path-effect
       effect="fill_between_many"
       method="originald"
       linkedpaths="#path14,0,1|"
       id="path-effect23" /><inkscape:path-effect
       effect="fill_between_many"
       method="originald"
       linkedpaths="#path23,0,1|"
       id="path-effect34" /></defs><g
     inkscape:label="Ebene 1"
     inkscape:groupmode="layer"
     id="layer1"><path
       id="path76"
       style="opacity:1;fill:#ffd42a;fill-rule:evenodd;stroke:#000000;stroke-width:2.08492;stroke-linecap:round;stroke-linejoin:round;stroke-dasharray:none;paint-order:normal"
       d="M 241.28169,55.2948 A 44.443682,44.450029 0 0 0 196.8773,10.844837 33.14081,33.435035 0 0 1 229.97872,44.280092 33.14081,33.435035 0 0 1 198.11829,77.690046 h -45.33846 v 21.970539 h 45.33846 A 44.443682,44.450029 0 0 0 241.28169,55.2948 Z m -44.05823,44.424648 h -1.87697 a 44.443682,44.450029 0 0 0 1.49094,0.02535 44.443682,44.450029 0 0 0 0.38603,-0.02535 z" /><path
       style="fill:#d4aa00;fill-rule:evenodd;stroke:#000000;stroke-width:2.08492;stroke-linecap:round;stroke-linejoin:round;stroke-dasharray:none;paint-order:normal"
       d="m 61.225214,131.75376 24.14435,91.68542 h 94.713716 l 23.27484,-91.68542 H 61.225214"
       id="path72" /><rect
       style="fill:#ffd42a;fill-rule:evenodd;stroke:#000000;stroke-width:2.08492;stroke-linecap:round;stroke-linejoin:round;stroke-dasharray:none;paint-order:normal"
       id="rect69"
       width="44.257389"
       height="15.815295"
       x="110.59774"
       y="237.92319"
       ry="7.9076476" /><path
       id="path73"
       style="fill:#ffcc00;fill-rule:evenodd;stroke:#000000;stroke-width:2.08492;stroke-linecap:round;stroke-linejoin:round;stroke-dasharray:none;paint-order:normal"
       d="m 220.94106,106.96797 a 24.781958,24.785497 0 0 0 -24.78161,24.78579 24.781958,24.785497 0 0 0 24.78161,24.78578 24.781958,24.785497 0 0 0 21.57569,-12.6236 l 0.009,0.0152 21.01564,-36.96316 z" /><path
       id="path74"
       style="fill:#ffcc00;fill-rule:evenodd;stroke:#000000;stroke-width:2.08492;stroke-linecap:round;stroke-linejoin:round;stroke-dasharray:none;paint-order:normal"
       d="m 43.642273,106.96797 a 24.781958,24.785497 0 0 1 24.781608,24.78579 24.781958,24.785497 0 0 1 -24.781608,24.78578 24.781958,24.785497 0 0 1 -21.57569,-12.6236 l -0.0086,0.0152 -21.0156318,-36.96316 z" /><path
       id="path77"
       style="opacity:1;fill:#ffd42a;fill-rule:evenodd;stroke:#000000;stroke-width:2.08492;stroke-linecap:round;stroke-linejoin:round;stroke-dasharray:none;paint-order:normal"
       d="M 23.302267,55.2948 A 44.443682,44.450029 0 0 1 67.706659,10.844837 33.14081,33.435035 0 0 0 34.60524,44.280092 33.14081,33.435035 0 0 0 66.465673,77.690046 H 111.80412 V 99.660585 H 66.465673 A 44.443682,44.450029 0 0 1 23.302267,55.2948 Z m 44.058234,44.424648 h 1.876969 a 44.443682,44.450029 0 0 1 -1.490938,0.02535 44.443682,44.450029 0 0 1 -0.386031,-0.02535 z" /><path
       id="rect67"
       style="fill:#ffcc00;fill-rule:evenodd;stroke:#000000;stroke-width:2.08492;stroke-linecap:round;stroke-linejoin:round;stroke-dasharray:none"
       d="M 89.134901,71.498505 V 83.881586 A 71.066625,60.254665 0 0 0 61.225215,131.75376 71.066625,60.254665 0 0 0 132.29199,192.00837 71.066625,60.254665 0 0 0 203.35812,131.75376 71.066625,60.254665 0 0 0 175.44907,83.881586 V 71.498505 h -43.11784 -0.0791 z" /><path
       id="path68"
       style="fill:#ffdd55;fill-rule:evenodd;stroke:#000000;stroke-width:2.08492;stroke-linecap:round;stroke-linejoin:round;stroke-dasharray:none"
       d="m 106.94779,201.85724 a 21.578515,21.581597 0 0 0 -21.578226,21.58194 21.578515,21.581597 0 0 0 21.578226,21.5813 21.578515,21.581597 0 0 0 0.01,0 h 51.53637 0.01 a 21.578515,21.581597 0 0 0 21.57886,-21.5813 21.578515,21.581597 0 0 0 -21.57886,-21.58194 h -0.01 -51.53637 a 21.578515,21.581597 0 0 0 -0.01,0 z" /><path
       id="rect70"
       style="fill:#ffd42a;fill-rule:evenodd;stroke:#000000;stroke-width:2.08492;stroke-linecap:round;stroke-linejoin:round;stroke-dasharray:none;paint-order:normal"
       d="m 126.34528,137.8665 c -10.75102,0 -19.40634,8.65592 -19.40634,19.40849 v 7.09756 18.07556 19.40913 h 19.40634 12.76165 19.40636 v -19.40913 -18.07556 -7.09756 c 0,-10.75257 -8.65534,-19.40849 -19.40636,-19.40849 z" /><ellipse
       style="fill:#806600;fill-rule:evenodd;stroke:#000000;stroke-width:2.08492;stroke-linecap:round;stroke-linejoin:round;stroke-dasharray:none;paint-order:normal"
       id="path71"
       cx="101.96201"
       cy="229.28622"
       rx="6.0825348"
       ry="6.0834036" /><ellipse
       style="fill:#806600;fill-rule:evenodd;stroke:#000000;stroke-width:2.08492;stroke-linecap:round;stroke-linejoin:round;stroke-dasharray:none;paint-order:normal"
       id="circle71"
       cx="163.49086"
       cy="229.28622"
       rx="6.0825348"
       ry="6.0834036" /><ellipse
       style="opacity:1;fill:#ffdd55;fill-rule:evenodd;stroke:#000000;stroke-width:2.08492;stroke-linecap:round;stroke-linejoin:round;stroke-dasharray:none;paint-order:normal"
       id="path78"
       cx="108.08938"
       cy="189.83839"
       transform="matrix(0.92607318,-0.37734396,0.37725152,0.92611084,0,0)"
       rx="10.650316"
       ry="10.651404" /><rect
       style="opacity:1;fill:#ffd42a;fill-rule:evenodd;stroke:#000000;stroke-width:2.08492;stroke-linecap:round;stroke-linejoin:round;stroke-dasharray:none;paint-order:normal"
       id="rect78"
       width="31.950947"
       height="13.10142"
       x="92.113914"
       y="173.24678"
       transform="matrix(0.92607318,-0.37734396,0.37725152,0.92611084,0,0)" /><ellipse
       style="opacity:1;fill:#ffdd55;fill-rule:evenodd;stroke:#000000;stroke-width:2.08492;stroke-linecap:round;stroke-linejoin:round;stroke-dasharray:none;paint-order:normal"
       id="circle79"
       cx="-137.74881"
       cy="89.671577"
       transform="matrix(-0.92607318,-0.37734397,-0.37725152,0.92611084,0,0)"
       rx="10.650316"
       ry="10.651404" /><rect
       style="opacity:1;fill:#ffd42a;fill-rule:evenodd;stroke:#000000;stroke-width:2.08492;stroke-linecap:round;stroke-linejoin:round;stroke-dasharray:none;paint-order:normal"
       id="rect79"
       width="31.950947"
       height="13.10142"
       x="-153.72427"
       y="73.079971"
       transform="matrix(-0.92607318,-0.37734397,-0.37725152,0.92611084,0,0)" /></g></svg>
