<?xml version="1.0" encoding="UTF-8" standalone="no"?>
<!-- Created with Inkscape (http://www.inkscape.org/) -->

<svg
   width="1000"
   height="1000"
   viewBox="0 0 264.58333 264.58333"
   version="1.1"
   id="svg1"
   inkscape:version="1.4.2 (f4327f4, 2025-05-13)"
   sodipodi:docname="coin.svg"
   inkscape:export-filename="bull.png"
   inkscape:export-xdpi="96"
   inkscape:export-ydpi="96"
   xml:space="preserve"
   xmlns:inkscape="http://www.inkscape.org/namespaces/inkscape"
   xmlns:sodipodi="http://sodipodi.sourceforge.net/DTD/sodipodi-0.dtd"
   xmlns="http://www.w3.org/2000/svg"
   xmlns:svg="http://www.w3.org/2000/svg"><sodipodi:namedview
     id="namedview1"
     pagecolor="#ffffff"
     bordercolor="#000000"
     borderopacity="0.25"
     inkscape:showpageshadow="2"
     inkscape:pageopacity="0.0"
     inkscape:pagecheckerboard="0"
     inkscape:deskcolor="#d1d1d1"
     inkscape:document-units="px"
     showborder="false"
     inkscape:zoom="0.3955"
     inkscape:cx="-260.42984"
     inkscape:cy="951.95954"
     inkscape:window-width="2560"
     inkscape:window-height="1369"
     inkscape:window-x="2552"
     inkscape:window-y="-8"
     inkscape:window-maximized="1"
     inkscape:current-layer="layer1" /><defs
     id="defs1"><inkscape:path-effect
       effect="fill_between_many"
       method="originald"
       linkedpaths="#path22,0,1|"
       id="path-effect22" /><inkscape:path-effect
       effect="fill_between_many"
       method="originald"
       linkedpaths="#path14,0,1|"
       id="path-effect23" /><inkscape:path-effect
       effect="fill_between_many"
       method="originald"
       linkedpaths="#path23,0,1|"
       id="path-effect34" /></defs><g
     inkscape:label="Ebene 1"
     inkscape:groupmode="layer"
     id="layer1"><path
       id="path79"
       style="opacity:1;fill:#ffcc00;fill-rule:evenodd;stroke:#000000;stroke-width:3.51367;stroke-linecap:round;stroke-linejoin:round;stroke-dasharray:none;paint-order:normal"
       d="M 132.29166,1.7568333 A 130.53504,130.53504 0 0 0 1.7568338,132.29166 130.53504,130.53504 0 0 0 132.29166,262.82649 130.53504,130.53504 0 0 0 262.82649,132.29166 130.53504,130.53504 0 0 0 132.29166,1.7568333 Z M 102.28105,102.28105 h 60.02123 v 60.02122 h -60.02123 z" /><g
       id="circle79"
       style="display:inline;opacity:1;stroke-width:0.659561"
       transform="matrix(1.5161609,0,0,1.5161609,-56.334656,-102.23588)"><path
         style="baseline-shift:baseline;display:inline;overflow:visible;vector-effect:none;fill:#d4aa00;fill-rule:evenodd;stroke-width:0.659561;stroke-linecap:round;stroke-linejoin:round;enable-background:accumulate;stop-color:#000000;stop-opacity:1"
         d="m 124.41049,85.177229 a 69.507843,69.507843 0 0 0 -69.507899,69.507901 69.507843,69.507843 0 0 0 69.507899,69.5079 69.507843,69.507843 0 0 0 69.5079,-69.5079 69.507843,69.507843 0 0 0 -69.5079,-69.507901 z m -19.90214,49.605761 h 39.80429 v 39.80428 h -39.80429 z"
         id="path99" /></g><path
       d="m 64.855223,213.27558 75.836317,-50.80906 h -38.57473 v -33.97951 l -66.900532,44.82234 a 105.38507,105.38507 0 0 0 29.638945,39.96623 z"
       style="display:inline;opacity:1;fill:#ffe680;fill-rule:evenodd;stroke-width:2.08492;stroke-linecap:round;stroke-linejoin:round"
       id="path96" /><path
       d="m 207.15176,58.116375 -65.67515,44.000435 h 20.98991 v 45.76098 l 70.37299,-47.14932 A 105.38507,105.38507 0 0 0 207.15176,58.116375 Z"
       style="display:inline;opacity:1;fill:#ffe680;fill-rule:evenodd;stroke-width:2.08492;stroke-linecap:round;stroke-linejoin:round"
       id="path93" /><path
       style="baseline-shift:baseline;display:inline;overflow:visible;opacity:1;vector-effect:none;fill-rule:evenodd;stroke-width:1;stroke-linecap:round;stroke-linejoin:round;enable-background:accumulate;stop-color:#000000;stop-opacity:1"
       d="M 132.29116,25.325963 C 73.234334,25.325914 25.324772,73.235471 25.324822,132.2923 c -4.9e-5,59.05681 47.909514,106.96638 106.966338,106.96633 59.05682,5e-5 106.96638,-47.90952 106.96633,-106.96633 5e-5,-59.056829 -47.90951,-106.966386 -106.96633,-106.966337 z m 0,3.159655 c 57.34845,-4.7e-5 103.80376,46.458233 103.80371,103.806682 5e-5,57.34845 -46.45527,103.80376 -103.80371,103.80371 C 74.942708,236.09606 28.487391,189.64073 28.487438,132.2923 28.487391,74.943851 74.942708,28.485573 132.29116,28.485618 Z m -30.17517,72.050202 a 1.5806951,1.5806951 0 0 0 -1.57833,1.58131 v 60.35032 a 1.5806951,1.5806951 0 0 0 1.57833,1.57835 h 60.35032 a 1.5806951,1.5806951 0 0 0 1.58131,-1.57835 v -60.35032 a 1.5806951,1.5806951 0 0 0 -1.58131,-1.58131 z m 1.58131,3.16262 h 57.1877 v 57.1877 h -57.1877 z"
       id="path100" /></g></svg>
