<?xml version="1.0" encoding="UTF-8" standalone="no"?>
<!-- Created with Inkscape (http://www.inkscape.org/) -->

<svg
   width="1000"
   height="1000"
   viewBox="0 0 264.58333 264.58333"
   version="1.1"
   id="svg1"
   inkscape:version="1.4.2 (f4327f4, 2025-05-13)"
   sodipodi:docname="collectort.svg"
   inkscape:export-filename="C:\Users\David\credit.png"
   inkscape:export-xdpi="96"
   inkscape:export-ydpi="96"
   xml:space="preserve"
   xmlns:inkscape="http://www.inkscape.org/namespaces/inkscape"
   xmlns:sodipodi="http://sodipodi.sourceforge.net/DTD/sodipodi-0.dtd"
   xmlns="http://www.w3.org/2000/svg"
   xmlns:svg="http://www.w3.org/2000/svg"><sodipodi:namedview
     id="namedview1"
     pagecolor="#ffffff"
     bordercolor="#000000"
     borderopacity="0.25"
     inkscape:showpageshadow="2"
     inkscape:pageopacity="0.0"
     inkscape:pagecheckerboard="0"
     inkscape:deskcolor="#d1d1d1"
     inkscape:document-units="px"
     showborder="false"
     inkscape:zoom="0.55932146"
     inkscape:cx="452.33379"
     inkscape:cy="687.44009"
     inkscape:window-width="2560"
     inkscape:window-height="1369"
     inkscape:window-x="2552"
     inkscape:window-y="-8"
     inkscape:window-maximized="1"
     inkscape:current-layer="svg1"
     showgrid="false" /><defs
     id="defs1"><inkscape:path-effect
       effect="fill_between_many"
       method="originald"
       linkedpaths="#path22,0,1|"
       id="path-effect22" /><inkscape:path-effect
       effect="fill_between_many"
       method="originald"
       linkedpaths="#path14,0,1|"
       id="path-effect23" /><inkscape:path-effect
       effect="fill_between_many"
       method="originald"
       linkedpaths="#path23,0,1|"
       id="path-effect34" /></defs><ellipse
     style="fill:#ffcc00;fill-rule:evenodd;stroke:#000000;stroke-width:2.66699;stroke-linecap:round;stroke-linejoin:round;stroke-dasharray:none"
     id="circle7"
     cx="-229.08551"
     cy="-229.09044"
     transform="scale(-1)"
     rx="28.077593"
     ry="28.079031" /><ellipse
     style="fill:#ffcc00;fill-rule:evenodd;stroke:#000000;stroke-width:2.66699;stroke-linecap:round;stroke-linejoin:round;stroke-dasharray:none"
     id="circle8"
     cx="-242.87602"
     cy="-201.79414"
     transform="scale(-1)"
     rx="20.373823"
     ry="20.374866" /><ellipse
     style="fill:#ffcc00;fill-rule:evenodd;stroke:#000000;stroke-width:2.66699;stroke-linecap:round;stroke-linejoin:round;stroke-dasharray:none"
     id="circle9"
     cx="35.497841"
     cy="-229.09044"
     transform="scale(1,-1)"
     rx="28.077593"
     ry="28.079031" /><ellipse
     style="fill:#ffcc00;fill-rule:evenodd;stroke:#000000;stroke-width:2.66699;stroke-linecap:round;stroke-linejoin:round;stroke-dasharray:none"
     id="circle10"
     cx="21.707321"
     cy="-201.79414"
     transform="scale(1,-1)"
     rx="20.373823"
     ry="20.374866" /><ellipse
     style="fill:#ffcc00;fill-rule:evenodd;stroke:#000000;stroke-width:2.66699;stroke-linecap:round;stroke-linejoin:round;stroke-dasharray:none"
     id="circle5"
     cx="-229.08551"
     cy="35.49287"
     transform="scale(-1,1)"
     rx="28.077593"
     ry="28.079031" /><ellipse
     style="fill:#ffcc00;fill-rule:evenodd;stroke:#000000;stroke-width:2.66699;stroke-linecap:round;stroke-linejoin:round;stroke-dasharray:none"
     id="circle6"
     cx="-242.87602"
     cy="62.789165"
     transform="scale(-1,1)"
     rx="20.373823"
     ry="20.374866" /><ellipse
     style="fill:#ffcc00;fill-rule:evenodd;stroke:#000000;stroke-width:2.66699;stroke-linecap:round;stroke-linejoin:round;stroke-dasharray:none"
     id="circle2"
     cx="35.497841"
     cy="35.49287"
     rx="28.077593"
     ry="28.079031" /><ellipse
     style="fill:#ffcc00;fill-rule:evenodd;stroke:#000000;stroke-width:2.66699;stroke-linecap:round;stroke-linejoin:round;stroke-dasharray:none"
     id="circle3"
     cx="21.707321"
     cy="62.789165"
     rx="20.373823"
     ry="20.374866" /><ellipse
     style="fill:#ffcc00;fill-rule:evenodd;stroke:#000000;stroke-width:2.66701;stroke-linecap:round;stroke-linejoin:round;stroke-dasharray:none"
     id="circle1"
     cx="132.29167"
     cy="132.29166"
     rx="124.87141"
     ry="124.87782" /><ellipse
     style="fill:#ff2a2a;fill-rule:evenodd;stroke:#000000;stroke-width:2.66701;stroke-linecap:round;stroke-linejoin:round;stroke-dasharray:none"
     id="path1"
     cx="132.29167"
     cy="132.29166"
     rx="107.87709"
     ry="107.88261" /><text
     xml:space="preserve"
     style="font-style:normal;font-variant:normal;font-weight:normal;font-stretch:normal;font-size:176.389px;line-height:0.72;font-family:'Vinci Sans Condensed';-inkscape-font-specification:'Vinci Sans Condensed, ';text-align:center;letter-spacing:-26.4583px;writing-mode:lr-tb;direction:ltr;text-anchor:middle;fill:#ffcc00;fill-rule:evenodd;stroke:#000000;stroke-width:2.667;stroke-linecap:round;stroke-linejoin:round;stroke-dasharray:none"
     x="-127.24867"
     y="102.17738"
     id="text10"><tspan
       sodipodi:role="line"
       id="tspan10"
       style="font-style:normal;font-variant:normal;font-weight:normal;font-stretch:normal;font-family:'Vinci Sans Condensed';-inkscape-font-specification:'Vinci Sans Condensed, ';stroke-width:2.667"
       x="-127.24867"
       y="102.17738" /></text><path
     id="path12"
     style="fill:#ffcc00;fill-rule:evenodd;stroke:#000000;stroke-width:2.66701;stroke-linecap:round;stroke-linejoin:round;stroke-dasharray:none"
     d="m 82.718078,66.255128 c -2.334472,0.109474 -4.507532,0.760231 -6.413428,1.796099 5.874035,4.110604 12.187774,13.17685 21.91063,17.967269 2.63529,-2.147069 3.01162,-5.800448 1.129278,-10.960949 -5.573692,-6.66392 -11.49066,-9.04326 -16.62648,-8.802419 z m 77.537572,17.538497 c -17.83251,5.655696 -34.02811,12.471602 -61.653006,11.187202 0.851847,4.048563 4.046376,7.031343 9.583486,8.949063 15.97238,-3.941998 31.0929,-6.605222 45.36157,-7.990256 -1.37365,18.701596 -6.81586,35.503646 -16.32634,50.405966 -8.53122,-8.2511 -16.94101,-17.83817 -24.88246,-28.99105 -3.60216,-1.46259 -6.90336,-1.56936 -9.90315,-0.31984 8.70325,10.36601 19.28265,24.39799 29.06175,37.42198 -10.85371,13.97877 -25.6518,26.11577 -44.394931,36.41079 19.485731,-3.80015 36.012051,-13.63579 49.579271,-29.50713 11.57911,15.40258 21.21523,28.00247 23.91302,29.07487 4.50725,1.82991 31.16047,4.44734 45.98068,-0.20671 -16.7755,-6.41337 -39.97176,-17.58596 -62.92263,-37.92758 9.46319,-13.63017 17.23347,-30.7128 23.3114,-51.24744 2.91379,-2.926094 5.15017,-6.229122 6.70865,-9.908568 -5.75227,-1.546414 -10.22504,-3.996826 -13.41731,-7.351297 z M 62.892928,97.912409 c -1.731777,0.05649 -3.360204,0.498822 -4.884932,1.327523 4.818847,9.077958 12.197864,15.594548 22.136756,19.549678 2.635318,-2.14707 3.011625,-5.80045 1.12927,-10.96095 -7.058869,-6.78022 -13.185766,-10.08575 -18.381094,-9.916251 z m 32.837656,29.013411 c -13.230535,20.2372 -27.858425,50.03852 -37.271011,49.04353 2.861195,12.58108 7.529636,20.03971 14.004975,22.37511 5.748362,-26.81823 15.381949,-47.80573 23.266036,-71.41864 z" /></svg>
