<?xml version="1.0" encoding="UTF-8" standalone="no"?>
<!-- Created with Inkscape (http://www.inkscape.org/) -->

<svg
   width="1000"
   height="1000"
   viewBox="0 0 264.58333 264.58333"
   version="1.1"
   id="svg1"
   inkscape:version="1.4.2 (f4327f4, 2025-05-13)"
   sodipodi:docname="gong.svg"
   inkscape:export-filename="queen.png"
   inkscape:export-xdpi="96"
   inkscape:export-ydpi="96"
   xml:space="preserve"
   xmlns:inkscape="http://www.inkscape.org/namespaces/inkscape"
   xmlns:sodipodi="http://sodipodi.sourceforge.net/DTD/sodipodi-0.dtd"
   xmlns="http://www.w3.org/2000/svg"
   xmlns:svg="http://www.w3.org/2000/svg"><sodipodi:namedview
     id="namedview1"
     pagecolor="#ffffff"
     bordercolor="#000000"
     borderopacity="0.25"
     inkscape:showpageshadow="2"
     inkscape:pageopacity="0.0"
     inkscape:pagecheckerboard="0"
     inkscape:deskcolor="#d1d1d1"
     inkscape:document-units="px"
     showborder="false"
     inkscape:zoom="0.3955"
     inkscape:cx="75.85335"
     inkscape:cy="292.0354"
     inkscape:window-width="2560"
     inkscape:window-height="1369"
     inkscape:window-x="2552"
     inkscape:window-y="-8"
     inkscape:window-maximized="1"
     inkscape:current-layer="layer1" /><defs
     id="defs1" /><g
     inkscape:label="Ebene 1"
     inkscape:groupmode="layer"
     id="layer1"><ellipse
       style="fill:#ffcc00;fill-rule:evenodd;stroke:#000000;stroke-width:2.11666;stroke-linecap:round;stroke-linejoin:round;stroke-dasharray:none"
       id="path10"
       cx="132.29161"
       cy="153.51819"
       rx="63.250134"
       ry="63.256504" /><ellipse
       style="fill:#d4aa00;fill-rule:evenodd;stroke:#000000;stroke-width:2.11666;stroke-linecap:round;stroke-linejoin:round;stroke-dasharray:none"
       id="circle10"
       cx="132.29161"
       cy="153.51819"
       rx="48.170635"
       ry="48.175488" /><ellipse
       style="fill:#aa8800;fill-rule:evenodd;stroke:#000000;stroke-width:2.11666;stroke-linecap:round;stroke-linejoin:round;stroke-dasharray:none"
       id="circle11"
       cx="132.29161"
       cy="153.51819"
       rx="18.430506"
       ry="18.432362" /><path
       id="rect11"
       style="fill:#aa0000;fill-rule:evenodd;stroke:#000000;stroke-width:1.85209;stroke-linecap:round;stroke-linejoin:round;stroke-dasharray:none"
       d="M 6.0959666,8.0114278 A 39.632179,39.636171 0 0 0 0.92605083,27.585176 39.632179,39.636171 0 0 0 40.558187,67.221302 H 218.27863 a 39.632179,39.636171 0 0 0 5.74651,0.418736 A 39.632179,39.636171 0 0 0 263.65728,28.00391 39.632179,39.636171 0 0 0 258.24598,8.0114278 39.374253,39.378218 0 0 1 218.87206,47.389971 39.374253,39.378218 0 0 1 184.15358,26.586555 H 80.188381 A 39.374253,39.378218 0 0 1 45.469897,47.389971 39.374253,39.378218 0 0 1 6.0959666,8.0114278 Z M 224.02514,67.640038 H 209.78378 V 256.57161 h 14.24136 z m -183.466953,0 V 256.57161 H 54.799561 V 67.640038 Z" /><path
       style="fill:#000000;fill-rule:evenodd;stroke:#000000;stroke-width:1.85208;stroke-linecap:round;stroke-linejoin:round;stroke-dasharray:none"
       d="M 168.59053,101.71562 180.46222,67.221303"
       id="path13" /><path
       style="fill:#000000;fill-rule:evenodd;stroke:#000000;stroke-width:1.85208;stroke-linecap:round;stroke-linejoin:round;stroke-dasharray:none"
       d="M 95.992646,101.71562 84.120955,67.221303"
       id="path14" /></g></svg>
