<?xml version="1.0" encoding="UTF-8" standalone="no"?>
<!-- Created with Inkscape (http://www.inkscape.org/) -->

<svg
   width="1000"
   height="1000"
   viewBox="0 0 264.58333 264.58333"
   version="1.1"
   id="svg1"
   inkscape:version="1.4.2 (f4327f4, 2025-05-13)"
   sodipodi:docname="lantern.svg"
   inkscape:export-filename="gong.png"
   inkscape:export-xdpi="96"
   inkscape:export-ydpi="96"
   xml:space="preserve"
   xmlns:inkscape="http://www.inkscape.org/namespaces/inkscape"
   xmlns:sodipodi="http://sodipodi.sourceforge.net/DTD/sodipodi-0.dtd"
   xmlns="http://www.w3.org/2000/svg"
   xmlns:svg="http://www.w3.org/2000/svg"><sodipodi:namedview
     id="namedview1"
     pagecolor="#ffffff"
     bordercolor="#000000"
     borderopacity="0.25"
     inkscape:showpageshadow="2"
     inkscape:pageopacity="0.0"
     inkscape:pagecheckerboard="0"
     inkscape:deskcolor="#d1d1d1"
     inkscape:document-units="px"
     showborder="false"
     inkscape:zoom="0.3955"
     inkscape:cx="-303.4134"
     inkscape:cy="565.10746"
     inkscape:window-width="2560"
     inkscape:window-height="1369"
     inkscape:window-x="2552"
     inkscape:window-y="-8"
     inkscape:window-maximized="1"
     inkscape:current-layer="layer1" /><defs
     id="defs1"><inkscape:path-effect
       effect="fill_between_many"
       method="originald"
       linkedpaths="#path22,0,1|"
       id="path-effect22" /><inkscape:path-effect
       effect="fill_between_many"
       method="originald"
       linkedpaths="#path14,0,1|"
       id="path-effect23" /></defs><g
     inkscape:label="Ebene 1"
     inkscape:groupmode="layer"
     id="layer1"><path
       inkscape:original-d="M 0,0"
       inkscape:path-effect="#path-effect23"
       d="m 119.67952,74.286938 c -28.108485,0 -51.068205,18.961773 -51.068205,42.555022 0,23.59324 22.95972,42.55451 51.068205,42.55451 28.10848,0 51.06871,-18.96127 51.06871,-42.55451 0,-23.593249 -22.96023,-42.555022 -51.06871,-42.555022 z"
       id="path23"
       style="fill:#d40000;stroke-width:0.616647"
       transform="matrix(1.621675,0,0,1.621675,-61.790016,-29.814169)" /><path
       id="path14"
       style="baseline-shift:baseline;display:inline;overflow:visible;opacity:1;vector-effect:none;fill:#000000;fill-rule:evenodd;stroke-width:0.616647;stroke-linecap:round;stroke-linejoin:round;enable-background:accumulate;stop-color:#000000;stop-opacity:1"
       d="m 119.67952,74.286938 c -28.108485,0 -51.068205,18.961773 -51.068205,42.555022 0,23.59324 22.95972,42.55451 51.068205,42.55451 28.10848,0 51.06871,-18.96127 51.06871,-42.55451 0,-23.593249 -22.96023,-42.555022 -51.06871,-42.555022 z m -0.92553,1.896525 v 81.316997 c -5.04181,-0.46448 -9.75215,-4.70478 -13.301,-11.64477 -3.76525,-7.36315 -6.134506,-17.64649 -6.134506,-29.01373 0,-11.36725 2.369256,-21.650577 6.134506,-29.01373 3.54885,-6.93999 8.25919,-11.180291 13.301,-11.644767 z m 1.85157,0 c 5.04201,0.464468 9.75368,4.704769 13.30254,11.644767 3.76525,7.363153 6.13296,17.64648 6.13296,29.01373 0,11.36724 -2.36771,21.65058 -6.13296,29.01373 -3.54886,6.94 -8.26053,11.1803 -13.30254,11.64477 z m -8.76639,0.787548 c -3.09523,2.212368 -5.82295,5.685212 -8.0362,10.013343 -3.939114,7.703154 -6.336052,18.234436 -6.336052,29.857606 0,11.62316 2.396938,22.15393 6.336052,29.85709 2.21325,4.32814 4.94096,7.80098 8.0362,10.01335 -17.667319,-3.79827 -30.968138,-20.1802 -30.968138,-39.87044 0,-19.690232 13.300824,-36.072677 30.968138,-39.870949 z m 15.68069,0 c 17.66775,3.798221 30.97021,20.18067 30.97021,39.870949 0,19.69029 -13.30246,36.07274 -30.97021,39.87095 3.09525,-2.21236 5.82346,-5.68571 8.03672,-10.01386 3.93911,-7.70316 6.33605,-18.23393 6.33605,-29.85709 0,-11.62317 -2.39694,-22.154452 -6.33605,-29.857606 -2.21325,-4.328149 -4.94147,-7.800976 -8.03672,-10.013343 z m -27.17508,2.429309 c -12.704575,7.204985 -21.327382,21.285 -21.327382,37.44164 0,16.15665 8.622797,30.23667 21.327382,37.44164 -17.604771,-6.22687 -29.881898,-20.69442 -29.881898,-37.44164 0,-16.74722 12.277138,-31.214759 29.881898,-37.44164 z m 38.66999,0 c 17.60475,6.226882 29.8819,20.69442 29.8819,37.44164 0,16.74722 -12.27714,31.21477 -29.8819,37.44164 12.70458,-7.20498 21.32686,-21.28499 21.32686,-37.44164 0,-16.15664 -8.62229,-30.236655 -21.32686,-37.44164 z"
       transform="matrix(1.621675,0,0,1.621675,-61.790016,-29.814169)" /><rect
       style="fill:#ffd42a;fill-rule:evenodd;stroke:#000000;stroke-width:2.64583;stroke-linecap:round;stroke-linejoin:round;stroke-dasharray:none"
       id="rect16"
       width="58.641205"
       height="14.277014"
       x="102.97141"
       y="82.546959" /><rect
       style="fill:#ffd42a;fill-rule:evenodd;stroke:#000000;stroke-width:2.64583;stroke-linecap:round;stroke-linejoin:round;stroke-dasharray:none"
       id="rect17"
       width="58.641205"
       height="14.277014"
       x="102.97141"
       y="222.6306" /><circle
       style="fill:#ffcc00;fill-rule:evenodd;stroke:#000000;stroke-width:2.64583;stroke-linecap:round;stroke-linejoin:round;stroke-dasharray:none"
       id="path17"
       cx="132.29202"
       cy="74.817223"
       r="7.729733" /><circle
       style="fill:#ffcc00;fill-rule:evenodd;stroke:#000000;stroke-width:2.64583;stroke-linecap:round;stroke-linejoin:round;stroke-dasharray:none"
       id="circle17"
       cx="132.29202"
       cy="62.361229"
       r="4.7262588" /><path
       style="fill:none;fill-rule:evenodd;stroke:#000000;stroke-width:2.64583;stroke-linecap:round;stroke-linejoin:round;stroke-dasharray:none"
       d="M 132.29202,57.634974 V 1.4525389"
       id="path18" /><rect
       style="fill:#ffd42a;fill-rule:evenodd;stroke:#000000;stroke-width:2.64583;stroke-linecap:round;stroke-linejoin:round;stroke-dasharray:none"
       id="rect18"
       width="5.3698583"
       height="26.223166"
       x="106.40398"
       y="236.90759" /><rect
       style="fill:#ffd42a;fill-rule:evenodd;stroke:#000000;stroke-width:2.64583;stroke-linecap:round;stroke-linejoin:round;stroke-dasharray:none"
       id="rect19"
       width="5.3698583"
       height="26.223166"
       x="118.00556"
       y="236.90762" /><rect
       style="fill:#ffd42a;fill-rule:evenodd;stroke:#000000;stroke-width:2.64583;stroke-linecap:round;stroke-linejoin:round;stroke-dasharray:none"
       id="rect20"
       width="5.3698583"
       height="26.223166"
       x="129.6071"
       y="236.90762" /><rect
       style="fill:#ffd42a;fill-rule:evenodd;stroke:#000000;stroke-width:2.64583;stroke-linecap:round;stroke-linejoin:round;stroke-dasharray:none"
       id="rect21"
       width="5.3698583"
       height="26.223166"
       x="141.20868"
       y="236.90762" /><rect
       style="fill:#ffd42a;fill-rule:evenodd;stroke:#000000;stroke-width:2.64583;stroke-linecap:round;stroke-linejoin:round;stroke-dasharray:none"
       id="rect22"
       width="5.3698583"
       height="26.223166"
       x="152.81026"
       y="236.90759" /></g></svg>
