<?xml version="1.0" encoding="UTF-8" standalone="no"?>
<!-- Created with Inkscape (http://www.inkscape.org/) -->

<svg
   width="1000"
   height="1000"
   viewBox="0 0 264.58333 264.58333"
   version="1.1"
   id="svg1"
   inkscape:version="1.4.2 (f4327f4, 2025-05-13)"
   sodipodi:docname="vase.svg"
   inkscape:export-filename="lantern.png"
   inkscape:export-xdpi="96"
   inkscape:export-ydpi="96"
   xml:space="preserve"
   xmlns:inkscape="http://www.inkscape.org/namespaces/inkscape"
   xmlns:sodipodi="http://sodipodi.sourceforge.net/DTD/sodipodi-0.dtd"
   xmlns="http://www.w3.org/2000/svg"
   xmlns:svg="http://www.w3.org/2000/svg"><sodipodi:namedview
     id="namedview1"
     pagecolor="#ffffff"
     bordercolor="#000000"
     borderopacity="0.25"
     inkscape:showpageshadow="2"
     inkscape:pageopacity="0.0"
     inkscape:pagecheckerboard="0"
     inkscape:deskcolor="#d1d1d1"
     inkscape:document-units="px"
     showborder="false"
     inkscape:zoom="0.55932146"
     inkscape:cx="330.75791"
     inkscape:cy="639.16732"
     inkscape:window-width="2560"
     inkscape:window-height="1369"
     inkscape:window-x="2552"
     inkscape:window-y="-8"
     inkscape:window-maximized="1"
     inkscape:current-layer="layer1" /><defs
     id="defs1"><inkscape:path-effect
       effect="fill_between_many"
       method="originald"
       linkedpaths="#path22,0,1|"
       id="path-effect22" /><inkscape:path-effect
       effect="fill_between_many"
       method="originald"
       linkedpaths="#path14,0,1|"
       id="path-effect23" /><inkscape:path-effect
       effect="fill_between_many"
       method="originald"
       linkedpaths="#path23,0,1|"
       id="path-effect34" /></defs><g
     inkscape:label="Ebene 1"
     inkscape:groupmode="layer"
     id="layer1"><path
       id="path34"
       style="fill:#447821;stroke:#000000;stroke-width:2.08493;stroke-dasharray:none"
       d="m 214.59697,99.047883 a 24.388238,24.366728 0 0 0 -22.59082,24.300267 24.388238,24.366728 0 0 0 24.38832,24.36681 c 1.81636,-8.68333 2.52559,-16.80399 2.12183,-24.36744 0,-0.006 0.001,-0.0109 0.001,-0.0163 0,-0.0148 1e-5,-0.0298 0,-0.0446 -7.8e-4,-0.0145 -0.001,-0.0289 -0.002,-0.0434 a 1.6089591,1.60754 0 0 0 -0.002,-0.0182 c -0.0122,-8.42224 -1.382,-16.54231 -3.91556,-24.177183 z" /><path
       id="path39"
       style="fill:#447821;stroke:#000000;stroke-width:2.08493;stroke-dasharray:none"
       d="m 48.170051,147.62455 a 24.388238,24.366728 0 0 0 22.28537,-24.2764 24.388238,24.366728 0 0 0 -20.546938,-24.062268 c -2.481715,7.561178 -3.824027,15.595138 -3.836995,23.924748 a 1.6089591,1.60754 0 0 0 -0.0038,0.0327 c -7.92e-4,0.0145 -10e-4,0.0289 -0.0019,0.0434 -7e-6,0.0148 0,0.0298 0,0.0446 0,0.006 0.0012,0.0109 0.0012,0.017 -0.402275,7.53697 0.300709,15.62742 2.102962,24.2764 z" /><path
       id="path40"
       style="fill:#71c837;stroke:#000000;stroke-width:2.08493;stroke-dasharray:none"
       d="m 132.29106,1.0424553 c -13.55018,3.89e-5 -25.81283,1.1610101 -34.795031,3.0712853 -4.491188,0.9551528 -8.157701,2.0834827 -10.834097,3.4292138 -1.338197,0.6728662 -2.437043,1.3971028 -3.275743,2.2687687 -0.838699,0.8716659 -1.439895,1.9761839 -1.439895,3.2018969 0,1.225712 0.601196,2.332116 1.439895,3.203782 0.8387,0.871666 1.937546,1.594019 3.275743,2.266885 2.050113,1.030827 4.681443,1.935261 7.819178,2.731566 5.77015,10.3268 5.477976,19.856875 -0.869222,29.465115 -20.755973,9.841529 -36.72905,27.355781 -43.703405,48.604914 a 24.388238,24.366728 0 0 1 20.546938,24.062268 24.388238,24.366728 0 0 1 -22.28537,24.2764 c 5.136441,24.64968 19.201186,53.83817 42.051708,87.69643 l -6.947443,15.44685 c -0.283842,0.39475 -0.458737,0.82725 -0.584506,1.29796 l -0.07353,0.1639 a 1.6089591,1.60754 0 0 0 -0.0044,0.13249 c -0.03116,0.18152 -0.13827,0.33634 -0.13827,0.52685 1e-6,0.15024 0.08974,0.27102 0.109363,0.4157 a 1.6089591,1.60754 0 0 0 0.0572,0.22041 c 0.190148,0.91909 0.657234,1.74865 1.341848,2.37364 0.84608,0.77241 1.930379,1.39703 3.254376,1.9818 2.647994,1.16954 6.277373,2.1515 10.730389,2.98337 8.906034,1.66374 21.079504,2.67693 34.529174,2.67693 13.44969,0 25.62063,-1.01319 34.52668,-2.67693 4.45302,-0.83187 8.08176,-1.81383 10.72976,-2.98337 1.324,-0.58477 2.4083,-1.20939 3.25438,-1.9818 0.68461,-0.62499 1.15233,-1.45455 1.34248,-2.37364 a 1.6089591,1.60754 0 0 0 0.0566,-0.22041 c 0.0196,-0.14468 0.10934,-0.26546 0.10934,-0.4157 0,-0.19051 -0.10654,-0.34533 -0.13764,-0.52685 a 1.6089591,1.60754 0 0 0 -0.005,-0.13249 l -0.0736,-0.1639 c -0.12577,-0.47071 -0.30066,-0.90321 -0.5845,-1.29796 l -7.11023,-15.80729 c 22.6793,-33.66356 36.65642,-62.70252 41.79024,-87.24558 A 24.388238,24.366728 0 0 1 192.00615,123.34815 24.388238,24.366728 0 0 1 214.59697,99.047883 C 207.58123,77.905994 191.64871,60.485752 170.97024,50.680968 164.62305,41.07273 164.3315,31.542652 170.10165,21.215853 c 3.13773,-0.796305 5.76907,-1.700739 7.81918,-2.731566 1.3382,-0.672866 2.43704,-1.395219 3.27574,-2.266885 0.8387,-0.871666 1.43926,-1.97807 1.43926,-3.203782 0,-1.225713 -0.60056,-2.330231 -1.43926,-3.2018969 -0.8387,-0.8716659 -1.93754,-1.5959025 -3.27574,-2.2687687 -2.6764,-1.3457311 -6.34354,-2.474061 -10.83472,-3.4292138 C 158.10389,2.2034654 145.84186,1.0424942 132.2917,1.0424553 Z" /><ellipse
       style="fill:#447821;fill-rule:evenodd;stroke:#000000;stroke-width:2.08493;stroke-linecap:round;stroke-linejoin:round;stroke-dasharray:none"
       id="path36"
       cx="132.29167"
       cy="12.635452"
       rx="37.933918"
       ry="7.425559" /><ellipse
       style="fill:#447821;fill-rule:evenodd;stroke:#000000;stroke-width:2.08493;stroke-linecap:round;stroke-linejoin:round;stroke-dasharray:none"
       id="circle37"
       cx="102.84276"
       cy="135.56546"
       rx="24.388239"
       ry="24.366728" /><ellipse
       style="fill:#447821;fill-rule:evenodd;stroke:#000000;stroke-width:2.08493;stroke-linecap:round;stroke-linejoin:round;stroke-dasharray:none"
       id="circle39"
       cx="159.61855"
       cy="135.56546"
       rx="24.388239"
       ry="24.366728" /></g></svg>
